<svg xmlns="http://www.w3.org/2000/svg" version="1.1" xmlns:xlink="http://www.w3.org/1999/xlink" viewBox="0 0 200 200"><rect width="200" height="200" fill="url('#gradient')"></rect><defs><linearGradient id="gradient" gradientTransform="rotate(45 0.5 0.5)"><stop offset="0%" stop-color="#303030"></stop><stop offset="100%" stop-color="202020"></stop></linearGradient></defs><g><g fill="#90a0d9" transform="matrix(4.818087381607088,0,0,4.818087381607088,19.754482468949007,134.23688409853668)" stroke="#c8512e" stroke-width="0"><path d="M13.12-7.47L13.12-6.82Q13.12-4.74 12.34-3.13Q11.57-1.53 10.15-0.67Q8.73 0.20 6.91 0.20Q5.10 0.20 3.69-0.64Q2.29-1.47 1.50-3.03Q0.71-4.58 0.67-6.59L0.67-6.59L0.67-7.39Q0.67-9.48 1.44-11.08Q2.21-12.68 3.64-13.54Q5.07-14.41 6.89-14.41L6.89-14.41Q8.70-14.41 10.12-13.55Q11.53-12.70 12.32-11.11Q13.11-9.52 13.12-7.47L13.12-7.47ZM9.63-6.76L9.63-7.41Q9.63-9.53 8.92-10.63Q8.21-11.73 6.89-11.73L6.89-11.73Q4.32-11.73 4.17-7.86L4.17-7.86L4.16-6.82Q4.16-4.73 4.85-3.60Q5.55-2.48 6.91-2.48L6.91-2.48Q8.21-2.48 8.92-3.58Q9.62-4.69 9.63-6.76L9.63-6.76ZM26.77-14.22L26.77 0L23.36 0L23.36-5.94L18.31-5.94L18.31 0L14.88 0L14.88-14.22L18.31-14.22L18.31-8.57L23.36-8.57L23.36-14.22L26.77-14.22ZM30.82-3.19L30.82-3.19Q31.60-3.19 32.12-2.73Q32.64-2.27 32.64-1.54Q32.64-0.82 32.12-0.36Q31.60 0.11 30.82 0.11L30.82 0.11Q30.03 0.11 29.52-0.36Q29.00-0.83 29.00-1.54Q29.00-2.26 29.52-2.72Q30.03-3.19 30.82-3.19Z"></path></g></g></svg>