<svg width="200" height="140" viewBox="0 0 200 140" xmlns="http://www.w3.org/2000/svg" fill="none" stroke="#555" stroke-width="1" opacity="0.15">
  <!-- Input layer nodes -->
  <circle cx="40" cy="30" r="8" fill="#888"></circle>
  <circle cx="40" cy="70" r="8" fill="#888"></circle>
  <circle cx="40" cy="110" r="8" fill="#888"></circle>

  <!-- Hidden layer nodes -->
  <circle cx="100" cy="20" r="8" fill="#aaa"></circle>
  <circle cx="100" cy="60" r="8" fill="#aaa"></circle>
  <circle cx="100" cy="100" r="8" fill="#aaa"></circle>
  <circle cx="100" cy="140" r="8" fill="#aaa"></circle>

  <!-- Output layer nodes -->
  <circle cx="160" cy="65" r="8" fill="#ccc"></circle>
  <circle cx="160" cy="105" r="8" fill="#ccc"></circle>

  <!-- Connections input to hidden -->
  <line x1="48" y1="30" x2="92" y2="20"></line>
  <line x1="48" y1="30" x2="92" y2="60"></line>
  <line x1="48" y1="70" x2="92" y2="20"></line>
  <line x1="48" y1="70" x2="92" y2="60"></line>
  <line x1="48" y1="70" x2="92" y2="100"></line>
  <line x1="48" y1="110" x2="92" y2="60"></line>
  <line x1="48" y1="110" x2="92" y2="100"></line>
  <line x1="48" y1="110" x2="92" y2="140"></line>

  <!-- Connections hidden to output -->
  <line x1="108" y1="20" x2="152" y2="65"></line>
  <line x1="108" y1="60" x2="152" y2="65"></line>
  <line x1="108" y1="100" x2="152" y2="65"></line>
  <line x1="108" y1="140" x2="152" y2="105"></line>
</svg>
